<!DOCTYPE svg PUBLIC "-//W3C//DTD SVG 1.1//EN" "http://www.w3.org/Graphics/SVG/1.1/DTD/svg11.dtd">
<!-- Uploaded to: SVG Repo, www.svgrepo.com, Transformed by: SVG Repo Mixer Tools -->
<svg fill="#383838" version="1.1" id="Capa_1" xmlns="http://www.w3.org/2000/svg" xmlns:xlink="http://www.w3.org/1999/xlink" viewBox="0 0 377.021 377.021" xml:space="preserve" width="256px" height="256px" transform="rotate(270)" stroke="#383838">
<g id="SVGRepo_bgCarrier" stroke-width="0"/>
<g id="SVGRepo_tracerCarrier" stroke-linecap="round" stroke-linejoin="round"/>
<g id="SVGRepo_iconCarrier"> <g> <path d="M279.522,36.163h-22.087V20c0-11.028-8.972-20-20-20h-97.85c-11.028,0-20,8.972-20,20v16.163H97.499 c-16.542,0-30,13.458-30,30v280.858c0,16.542,13.458,30,30,30h182.023c16.542,0,30-13.458,30-30V66.163 C309.522,49.621,296.064,36.163,279.522,36.163z M97.499,347.021V66.163h182.023l0.003,280.858H97.499z"/> <rect x="122.586" y="266.5" width="131.85" height="59.663"/> <rect x="122.586" y="176.63" width="131.85" height="59.663"/> <rect x="122.586" y="86.761" width="131.85" height="59.663"/> </g> </g>
</svg>