<svg xmlns="http://www.w3.org/2000/svg" viewBox="1.3 2.52571 21.5 18.77">
	<path d="M12 9ZM12 19 15.5 19.5ZC12 19 12 9 12 9H1.3C1.3 11.8 2.4 13.8 3.8 15.5 5.2 17.1 7.1 18.4 8.5 19.5ZC12 19 12 9 12 9 12 9 12 6 12 6L12.5 5C10.1 2.4 7.3 2 5 3.1 2.8 4.1 1.3 6.4 1.3 9ZM8.5 19.5C9 19.9 9.6 20.3 10.1 20.7 10.7 21 11.3 21.3 12 21.3V19ZM15.5 19.5C16.9 18.4 18.8 17.1 20.2 15.5 21.6 13.8 22.8 11.8 22.8 9.1ZM22.8 9.1C22.8 6.4 21.2 4.1 19 3.1 16.7 2 13.9 2.4 11.5 5L12 6C12 6 12 9 12 9H12ZC3.9 3 12 19 12 19V21.3C12.7 21.3 13.3 21 13.9 20.7 14.4 20.3 15 19.9 15.5 19.5Z" fill="#c878eb"/>
</svg>