<?xml version="1.0" encoding="UTF-8" standalone="no" ?>
<!DOCTYPE svg PUBLIC "-//W3C//DTD SVG 1.1//EN" "http://www.w3.org/Graphics/SVG/1.1/DTD/svg11.dtd">
<svg xmlns="http://www.w3.org/2000/svg" xmlns:xlink="http://www.w3.org/1999/xlink" version="1.1" width="1080" height="1080" viewBox="0.5 -1.5 1080 1080" xml:space="preserve">
<desc>Created with Fabric.js 5.2.4</desc>
<defs>
</defs>
<g transform="matrix(1 0 0 1 540 540)" id="17893f0f-8cf6-4a3d-a1ef-f2e4118323ec"  >
</g>
<g transform="matrix(1 0 0 1 540 540)" id="9283f0c8-c8aa-4d92-8014-f4f4ee33cda2"  >
<rect style="stroke: none; stroke-width: 1; stroke-dasharray: none; stroke-linecap: butt; stroke-dashoffset: 0; stroke-linejoin: miter; stroke-miterlimit: 4; fill: rgb(255,255,255); fill-rule: nonzero; opacity: 1; visibility: hidden;" vector-effect="non-scaling-stroke"  x="-540" y="-540" rx="0" ry="0" width="1080" height="1080" />
</g>
<g transform="matrix(1 0 0 1 540 540)"  >
<path style="stroke: rgb(200,120,235); stroke-width: 0; stroke-dasharray: none; stroke-linecap: butt; stroke-dashoffset: 0; stroke-linejoin: miter; stroke-miterlimit: 4; fill: rgb(200,120,235); fill-rule: nonzero; opacity: 1;" vector-effect="non-scaling-stroke"  transform=" translate(-12, -11.89)" d="M 8.96173 18.9109 L 9.42605 18.3219 L 8.96173 18.9109 Z M 12 5.50063 L 11.4596 6.02073 C 11.601 6.16763 11.7961 6.25063 12 6.25063 C 12.2039 6.25063 12.399 6.16763 12.5404 6.02073 L 12 5.50063 Z M 15.0383 18.9109 L 15.5026 19.4999 L 15.0383 18.9109 Z M 9.42605 18.3219 C 7.91039 17.1271 6.25307 15.9603 4.93829 14.4798 C 3.64922 13.0282 2.75 11.3345 2.75 9.1371 L 1.25 9.1371 C 1.25 11.8026 2.3605 13.8361 3.81672 15.4758 C 5.24723 17.0866 7.07077 18.3752 8.49742 19.4999 L 9.42605 18.3219 Z M 2.75 9.1371 C 2.75 6.98623 3.96537 5.18252 5.62436 4.42419 C 7.23607 3.68748 9.40166 3.88258 11.4596 6.02073 L 12.5404 4.98053 C 10.0985 2.44352 7.26409 2.02539 5.00076 3.05996 C 2.78471 4.07292 1.25 6.42503 1.25 9.1371 L 2.75 9.1371 Z M 8.49742 19.4999 C 9.00965 19.9037 9.55954 20.3343 10.1168 20.6599 C 10.6739 20.9854 11.3096 21.25 12 21.25 L 12 19.75 C 11.6904 19.75 11.3261 19.6293 10.8736 19.3648 C 10.4213 19.1005 9.95208 18.7366 9.42605 18.3219 L 8.49742 19.4999 Z M 15.5026 19.4999 C 16.9292 18.3752 18.7528 17.0866 20.1833 15.4758 C 21.6395 13.8361 22.75 11.8026 22.75 9.1371 L 21.25 9.1371 C 21.25 11.3345 20.3508 13.0282 19.0617 14.4798 C 17.7469 15.9603 16.0896 17.1271 14.574 18.3219 L 15.5026 19.4999 Z M 22.75 9.1371 C 22.75 6.42503 21.2153 4.07292 18.9992 3.05996 C 16.7359 2.02539 13.9015 2.44352 11.4596 4.98053 L 12.5404 6.02073 C 14.5983 3.88258 16.7639 3.68748 18.3756 4.42419 C 20.0346 5.18252 21.25 6.98623 21.25 9.1371 L 22.75 9.1371 Z M 14.574 18.3219 C 14.0479 18.7366 13.5787 19.1005 13.1264 19.3648 C 12.6739 19.6293 12.3096 19.75 12 19.75 L 12 21.25 C 12.6904 21.25 13.3261 20.9854 13.8832 20.6599 C 14.4405 20.3343 14.9903 19.9037 15.5026 19.4999 L 14.574 18.3219 Z" stroke-linecap="round" />
</g>
<g transform="matrix(0.15 0 0 0.15 535.38 536.95)" id="7f31ad85-bc17-4a24-9f62-d571772513ea"  >
<circle style="stroke: rgb(0,0,0); stroke-width: 0; stroke-dasharray: none; stroke-linecap: butt; stroke-dashoffset: 0; stroke-linejoin: miter; stroke-miterlimit: 4; fill: rgb(201,120,234); fill-rule: nonzero; opacity: 1;" vector-effect="non-scaling-stroke"  cx="0" cy="0" r="35" />
</g>
<g transform="matrix(0.15 0 0 0.15 544.53 536.82)" id="7f31ad85-bc17-4a24-9f62-d571772513ea"  >
<circle style="stroke: rgb(0,0,0); stroke-width: 0; stroke-dasharray: none; stroke-linecap: butt; stroke-dashoffset: 0; stroke-linejoin: miter; stroke-miterlimit: 4; fill: rgb(201,120,234); fill-rule: nonzero; opacity: 1;" vector-effect="non-scaling-stroke"  cx="0" cy="0" r="35" />
</g>
<g transform="matrix(0.2 -0.03 0.01 0.11 541.51 544.75)" id="ed0d1006-6087-4ed3-8304-ab324773ab97"  >
<path style="stroke: rgb(0,0,0); stroke-width: 0; stroke-dasharray: none; stroke-linecap: butt; stroke-dashoffset: 0; stroke-linejoin: miter; stroke-miterlimit: 4; fill: rgb(201,121,235); fill-rule: nonzero; opacity: 1;" vector-effect="non-scaling-stroke"  transform=" translate(-50, -50)" d="M 14.148 44.105 L 18.091 40.162 C 20.01 38.242 23.176000000000002 38.242 25.096 40.162 L 42.164 57.230999999999995 L 74.904 24.440999999999995 C 76.823 22.521999999999995 79.98899999999999 22.521999999999995 81.90899999999999 24.440999999999995 L 85.851 28.383999999999997 C 87.771 30.302999999999997 87.771 33.415 85.851 35.334999999999994 L 45.641 75.54499999999999 L 45.537 75.64899999999999 L 45.433 75.75299999999999 L 45.329 75.80499999999999 L 45.277 75.90899999999999 L 45.173 75.961 L 45.069 76.065 L 44.965 76.117 L 44.861000000000004 76.16900000000001 L 44.757000000000005 76.27400000000002 L 44.653000000000006 76.32400000000001 L 44.54900000000001 76.37800000000001 L 44.44500000000001 76.43000000000002 L 44.34100000000001 76.48200000000003 L 44.23700000000001 76.53400000000003 L 44.08000000000001 76.58600000000004 L 43.97600000000001 76.63800000000005 L 43.872000000000014 76.69000000000005 L 43.768000000000015 76.74200000000006 L 43.664000000000016 76.74200000000006 L 43.56000000000002 76.79400000000007 L 43.405000000000015 76.84700000000007 L 43.301000000000016 76.84700000000007 L 43.19700000000002 76.89900000000007 L 42.93800000000002 76.89900000000007 L 42.83400000000002 76.95100000000008 L 42.62600000000002 76.95100000000008 L 42.47100000000002 77.00300000000009 L 41.795000000000016 77.00300000000009 L 41.640000000000015 76.95100000000008 L 41.432000000000016 76.95100000000008 L 41.32800000000002 76.89900000000007 L 41.06900000000002 76.89900000000007 L 40.96500000000002 76.84700000000007 L 40.86100000000002 76.84700000000007 L 40.70600000000002 76.79400000000007 L 40.60200000000002 76.74200000000006 L 40.49800000000002 76.74200000000006 L 40.39400000000002 76.69000000000005 L 40.29000000000002 76.63800000000005 L 40.185000000000024 76.58600000000004 L 40.081000000000024 76.53400000000003 L 40.029000000000025 76.53400000000003 C 39.563000000000024 76.32500000000003 39.096000000000025 75.96200000000003 38.630000000000024 75.54800000000003 L 14.140000000000025 51.059000000000026 C 12.229 49.137 12.229 46.025 14.148 44.105 z" stroke-linecap="round" />
</g>
<g transform="matrix(0.25 0 0 0.18 539.98 540)" id="49343c1c-85e4-4f41-add6-60d286a37661"  >
<polygon style="stroke: rgb(0,0,0); stroke-width: 0; stroke-dasharray: none; stroke-linecap: butt; stroke-dashoffset: 0; stroke-linejoin: miter; stroke-miterlimit: 4; fill: rgb(201,121,235); fill-rule: nonzero; opacity: 1;" vector-effect="non-scaling-stroke"  points="-18.54,32.11 -37.08,0 -18.54,-32.11 18.54,-32.11 37.08,0 18.54,32.11 " />
</g>
</svg>